<svg width="32" height="32" viewBox="0 0 32 32" fill="none" xmlns="http://www.w3.org/2000/svg">
<path d="M23.4641 4.45279C23.1743 5.41873 22.4186 6.17444 21.4527 6.46423L19.2451 7.12651C18.8745 7.23768 18.8745 7.76244 19.2451 7.87361L21.4527 8.53587C22.4186 8.82565 23.1743 9.58137 23.4641 10.5473L24.1266 12.7557C24.2378 13.1262 24.7624 13.1263 24.8737 12.7558L25.5375 10.5463C25.8274 9.58091 26.5828 8.82571 27.5483 8.53596L29.7551 7.87367C30.1256 7.76247 30.1256 7.23775 29.755 7.12658L27.5472 6.46423C26.5813 6.17444 25.8256 5.41873 25.5358 4.45279L24.8735 2.24522C24.7623 1.87464 24.2376 1.87464 24.1264 2.24522L23.4641 4.45279Z" fill="black"/>
<path d="M11.4344 11.8692C10.7472 14.0437 9.04377 15.7472 6.86927 16.4344L2.50425 17.8139C1.83369 18.0258 1.83349 18.9747 2.50396 19.1869L6.87211 20.5694C9.045 21.2572 10.747 22.9597 11.4341 25.1328L12.814 29.4968C13.026 30.1672 13.9746 30.1674 14.1869 29.497L15.5698 25.1299C16.2574 22.9585 17.9585 21.2573 20.13 20.5697L24.4971 19.1868C25.1674 18.9746 25.1672 18.0259 24.4968 17.8139L20.1328 16.4341C17.9597 15.747 16.2572 14.045 15.5695 11.8721L14.1869 7.50393C13.9747 6.83346 13.0259 6.83366 12.8139 7.50422L11.4344 11.8692Z" fill="black"/>
</svg>
