<svg width="32" height="32" viewBox="0 0 32 32" fill="none" xmlns="http://www.w3.org/2000/svg">
<path d="M20.8662 26.9922C20.8468 27.0531 20.8262 27.114 20.8008 27.1738C20.5828 27.6864 20.1671 28.0603 19.7744 28.4385L19.3154 28.8809C18.9423 29.2401 18.5717 29.6201 18.0801 29.8184C17.7114 29.967 17.3212 29.9954 16.9307 30H15.1162C14.7328 29.9956 14.3494 29.9687 13.9863 29.8252C13.5024 29.6339 13.1345 29.2664 12.7637 28.9189L12.2646 28.4521C11.8597 28.0728 11.4314 27.6976 11.2061 27.1777C11.1807 27.1192 11.1592 27.0597 11.1396 27H20.75C20.7894 27 20.828 26.9966 20.8662 26.9922ZM21.1211 22.0635C21.0113 22.4217 21 22.8846 21 24.2529V25.0322C20.92 25.0116 20.8364 25 20.75 25H11V24.2529C11 22.8846 10.9887 22.4217 10.8789 22.0635C10.8789 22.0635 10.8702 22.0428 10.8506 22H21.1494C21.1298 22.0428 21.1211 22.0635 21.1211 22.0635ZM16 2C21.4932 2 26 6.32425 26 11.7236C26 13.6955 25.3955 15.5313 24.3594 17.0625C23.5453 18.2654 22.8942 19.2343 22.3867 20H9.61328C9.1058 19.2343 8.4547 18.2654 7.64062 17.0625C6.6045 15.5313 6 13.6955 6 11.7236C6.00003 6.32425 10.5068 2 16 2Z" fill="black"/>
</svg>
