<svg width="31" height="32" viewBox="0 0 31 32" fill="none" xmlns="http://www.w3.org/2000/svg">
<path d="M16.8629 3.93457C23.3471 4.09889 28.5532 9.40689 28.5533 15.9307C28.5531 21.904 24.1883 26.8561 18.4742 27.7754C17.7249 27.9219 16.9509 28 16.1588 28C11.7958 27.9999 7.98107 25.6694 5.88239 22.1924C5.22972 21.111 6.14995 20.0298 7.12067 20.002C7.26086 19.9568 7.40645 19.9307 7.55329 19.9307L7.96539 19.9209C8.21975 19.908 8.47078 19.8818 8.71832 19.8457C12.3898 19.1197 15.1588 15.8833 15.1588 11.999C15.1586 10.2513 14.5992 8.63748 13.649 7.32227C13.2305 6.74305 13.1312 6.01295 13.3287 5.38672C13.5344 4.73486 14.0896 4.14902 14.9351 4.0625L14.9966 4.05664C15.102 4.02682 15.2131 4.00512 15.3297 3.99316L15.6324 3.96582C15.9362 3.94246 16.2436 3.93068 16.5533 3.93066L16.8629 3.93457Z" fill="#10171A"/>
</svg>
