<svg width="32" height="32" viewBox="0 0 32 32" fill="none" xmlns="http://www.w3.org/2000/svg">
<path d="M16 19C21.8313 19 25.2026 21.0398 26.7627 22.3564C27.6726 23.1245 28 24.2409 28 25.25C28 27.8734 25.8734 30 23.25 30H8.75C6.12665 30 4 27.8734 4 25.25C4 24.2409 4.32737 23.1245 5.2373 22.3564C6.79739 21.0398 10.1687 19 16 19Z" fill="black"/>
<path d="M16 2C20.1421 2 23.5 5.35786 23.5 9.5C23.5 13.6421 20.1421 17 16 17C11.8579 17 8.5 13.6421 8.5 9.5C8.5 5.35786 11.8579 2 16 2Z" fill="black"/>
</svg>
